<?xml version="1.0" encoding="utf-8"?>
<!-- Generator: Adobe Illustrator 25.4.1, SVG Export Plug-In . SVG Version: 6.00 Build 0)  -->
<svg version="1.1" id="Layer_1" xmlns="http://www.w3.org/2000/svg" xmlns:xlink="http://www.w3.org/1999/xlink" x="0px" y="0px"
	 viewBox="0 0 30 30" style="enable-background:new 0 0 30 30;" xml:space="preserve">
<style type="text/css">
	.st0{fill:#5B6E80;}
</style>
<g>
	<path class="st0" d="M27.6,6.8c0-1.2-0.4-2.3-1.2-3.1c-0.8-0.8-1.9-1.3-3-1.3c-4.3,0-12.6,0-16.8,0c-0.5,0-1,0.1-1.5,0.3
		C3.3,3.5,2.4,5,2.4,6.9c0,4.3,0,8.7,0,13l0,0.4c0,1.5,0.8,2.6,2.1,3.1c0,0.3,0,0.7,0,1c0,0.6,0,1.2,0,1.8c0,0.6,0.2,1.1,0.7,1.3
		l0.5,0l0.1,0c0.1,0,0.1-0.1,0.2-0.1c0.1-0.1,0.3-0.2,0.4-0.3c0.6-0.5,1.3-1,1.9-1.5c0.8-0.7,1.7-1.3,2.5-2c0.1,0,0.2-0.1,0.3-0.1
		c2,0,3.9,0,5.9,0c0.4,0,4.7,0,5-0.1c1.5-0.4,2.4-1.6,2.4-3.2c0-2.6,0-5.2,0-7.8V9.4l2,0c0.8,0,1.2-0.4,1.2-1.2l0-0.5
		C27.6,7.4,27.6,7.1,27.6,6.8z M12.2,4.4c2.3,0,8.7,0,11,0c1.3,0,2.3,0.9,2.3,2.2c0,0.2,0,0.4,0,0.6v0H11.1c0-1.1-0.2-2.1-0.7-2.8
		L12.2,4.4z M6.6,22.7c0-0.6-0.4-1-1-1.1c-0.7-0.1-1.1-0.5-1.1-1.2c0-4.5,0-9,0-13.4C4.4,5.8,5,5,6,4.6c0.2-0.1,0.5-0.1,0.8-0.1
		c0.4,0,0.8,0.1,1.2,0.3c0.6,0.3,1,0.9,1.1,1.5C9,6.8,9,7.2,9,7.7c0,0.2,0,0.4,0,0.6c0,0.6,0.4,1,1,1.1c0.1,0,0.2,0,0.3,0l12.1,0v11
		c0,0.5-0.2,1-0.9,1.2c-0.1,0-4.4,0-4.5,0c-2.1,0-4.1,0-6.2,0c0,0,0,0,0,0c-0.4,0-0.7,0.1-1,0.3c-0.8,0.6-1.6,1.3-2.4,1.9l-0.9,0.7
		v-0.6C6.6,23.5,6.6,23.1,6.6,22.7z"/>
	<path class="st0" d="M9,12.8l8.3,0c0.1,0,0.2,0,0.3,0c0.1,0,0.2,0,0.4,0c0.3,0,0.5-0.1,0.7-0.3c0.1-0.2,0.2-0.5,0.1-0.7
		c-0.1-0.4-0.4-0.6-0.9-0.6l-8.8,0c-0.1,0-0.2,0-0.3,0c-0.4,0.1-0.7,0.5-0.6,0.9C8.1,12.6,8.5,12.8,9,12.8z"/>
	<path class="st0" d="M9,16.1h5.3c0.3,0,0.6,0,0.9,0c0.9,0,1.7,0,2.6,0c0.1,0,0.3,0,0.4-0.1c0.2-0.1,0.4-0.2,0.5-0.5
		c0.1-0.2,0.1-0.5-0.1-0.7c-0.2-0.3-0.4-0.4-0.8-0.4c-3,0-5.9,0-8.9,0c-0.1,0-0.2,0-0.3,0.1c-0.2,0.1-0.4,0.3-0.5,0.5
		c-0.1,0.2,0,0.5,0.1,0.7C8.4,16,8.7,16.1,9,16.1z"/>
	<path class="st0" d="M9.1,19.3c1.5,0,2.9,0,4.4,0c1.4,0,2.9,0,4.3,0c0.2,0,0.3,0,0.4,0c0.4-0.1,0.6-0.4,0.6-0.8
		c0-0.5-0.4-0.8-0.9-0.8l-3.3,0l-5.5,0c-0.1,0-0.3,0-0.4,0c-0.4,0.1-0.6,0.4-0.6,0.8c0,0.4,0.2,0.7,0.6,0.8
		C8.8,19.3,8.9,19.3,9.1,19.3z"/>
</g>
</svg>
