<?xml version="1.0" encoding="utf-8"?>
<!-- Generator: Adobe Illustrator 25.4.1, SVG Export Plug-In . SVG Version: 6.00 Build 0)  -->
<svg version="1.1" id="Layer_1" xmlns="http://www.w3.org/2000/svg" xmlns:xlink="http://www.w3.org/1999/xlink" x="0px" y="0px"
	 viewBox="0 0 30 30" style="enable-background:new 0 0 30 30;" xml:space="preserve">
<style type="text/css">
	.st0{fill:#5B6E80;}
</style>
<g id="Group_172814_00000029008028953933240340000017356162152496823953_" transform="translate(2151.31 108.768)">
	<path id="Path_38283_00000066508878893818248700000012924094439311768248_" class="st0" d="M-2125.4-91.2c-0.2-0.6-0.7-1-1.4-0.9
		c-0.7,0.1-1.1,0.6-1.1,1.3c0,1.3,0,2.6,0,3.8v1.9c0,0.7-0.3,1.4-0.8,1.9c-0.5,0.5-1.2,0.8-1.9,0.8l0,0c-3.8,0-7.7,0-11.5,0l0,0
		c-0.7,0-1.4-0.3-1.9-0.8c-0.5-0.5-0.8-1.2-0.8-1.9v-1.4c0-1.4,0-2.8,0-4.2c0-0.3-0.1-0.6-0.3-0.9c-0.3-0.4-0.9-0.6-1.4-0.4
		c-0.5,0.2-0.8,0.7-0.8,1.2c0,1.9,0,3.9,0,5.8c0,2.8,2.3,5.1,5.1,5.1h9.7h0.9c0.4,0,0.7,0,1.1,0c2.7-0.1,5-2.3,5-5
		c0-1.8,0-3.6,0-5.4v-0.4C-2125.4-90.9-2125.4-91-2125.4-91.2z"/>
	<path id="Path_38284_00000183245543355444329790000009816123941096522387_" class="st0" d="M-2123-94.8l-12.3-12.3
		c-0.3-0.3-0.6-0.5-1-0.5l0,0c-0.4,0-0.8,0.2-1.1,0.5l-12.3,12.3c-0.1,0.1-0.1,0.1-0.2,0.2c-0.3,0.3-0.4,0.8-0.3,1.2
		c0.1,0.4,0.5,0.7,0.9,0.8c0.5,0.1,1-0.1,1.3-0.5l11.5-11.5c0,0,0,0,0.1-0.1c0,0,0,0,0.1,0.1c3.8,3.8,7.6,7.6,11.4,11.4l0.1,0.1
		c0.1,0.1,0.1,0.1,0.2,0.2c0.2,0.2,0.5,0.3,0.8,0.3c0.2,0,0.4,0,0.5-0.1c0.5-0.2,0.7-0.7,0.7-1.2
		C-2122.5-94.2-2122.7-94.5-2123-94.8z"/>
</g>
</svg>
