<?xml version="1.0" encoding="utf-8"?>
<!-- Generator: Adobe Illustrator 25.4.1, SVG Export Plug-In . SVG Version: 6.00 Build 0)  -->
<svg version="1.1" id="Layer_1" xmlns="http://www.w3.org/2000/svg" xmlns:xlink="http://www.w3.org/1999/xlink" x="0px" y="0px"
	 viewBox="0 0 30 30" style="enable-background:new 0 0 30 30;" xml:space="preserve">
<style type="text/css">
	.st0{fill:#FFFFFF;}
	.st1{fill:#FFF3E9;}
	.st2{clip-path:url(#SVGID_00000064345961252080600910000006758759612764002746_);fill:#E4D9CE;}
	.st3{fill:#6D7772;}
	.st4{fill:none;stroke:#303030;stroke-width:2.1984;stroke-linecap:round;stroke-miterlimit:10;}
	.st5{fill:#FFF0EF;}
	.st6{fill:#E87D86;}
	.st7{fill:#FFACB3;}
	.st8{fill:#EE7A63;}
	.st9{fill:#E4D9CE;}
	.st10{fill:#EAB8A0;}
	.st11{fill:#FF957B;}
	.st12{fill:#252D29;}
	.st13{fill:#EAB8A0;stroke:#252D29;stroke-width:5;stroke-miterlimit:10;}
	
		.st14{fill:none;stroke:#252D29;stroke-width:4;stroke-linecap:round;stroke-linejoin:round;stroke-miterlimit:10;stroke-dasharray:0.884,8;}
	.st15{fill:#B1B1A1;}
	
		.st16{fill:none;stroke:#252D29;stroke-width:4;stroke-linecap:round;stroke-linejoin:round;stroke-miterlimit:10;stroke-dasharray:0.7714,6.9813;}
	.st17{fill:#252D29;stroke:#E4D9CE;stroke-width:0.9857;stroke-miterlimit:10;}
	
		.st18{fill:none;stroke:#252D29;stroke-width:3.5192;stroke-linecap:round;stroke-linejoin:round;stroke-miterlimit:10;stroke-dasharray:0.6787,6.1422;}
	.st19{fill:#231F20;}
	.st20{fill:#6B4F5B;}
	.st21{fill:#E4D9CE;stroke:#252D29;stroke-width:3;stroke-miterlimit:10;}
	.st22{fill:none;stroke:#252D29;stroke-miterlimit:10;}
	.st23{fill:#FCE3C2;}
	.st24{fill:none;stroke:#252D29;stroke-width:4;stroke-miterlimit:10;}
	.st25{fill:#D9D93C;}
	.st26{fill:none;stroke:#252D29;stroke-width:6;stroke-miterlimit:10;}
	.st27{fill:#B1B1A1;stroke:#252D29;stroke-width:4;stroke-miterlimit:10;}
	.st28{clip-path:url(#SVGID_00000063622847996081682790000013426889410814764683_);}
	.st29{fill:#FFEEE3;}
	.st30{fill:#351E13;}
	.st31{fill:#FFD4D0;}
	.st32{fill:#633E2E;}
	.st33{fill:#A9BA5A;}
	.st34{fill:#E66353;}
	.st35{fill:none;stroke:#252D29;stroke-width:3;stroke-miterlimit:10;}
	.st36{fill:#2E2E30;}
	.st37{fill:none;}
	.st38{fill:#172026;}
	.st39{fill:none;stroke:#000000;stroke-miterlimit:10;}
	.st40{fill:none;stroke:#172026;stroke-width:2;stroke-linecap:round;stroke-linejoin:round;}
	.st41{fill:none;stroke:#000000;stroke-width:12;stroke-miterlimit:10;}
	.st42{fill:#5B6E80;}
	.st43{fill:#FF856D;}
	.st44{fill-rule:evenodd;clip-rule:evenodd;fill:#5B6E80;}
</style>
<g id="Component_1_2" transform="translate(0 2.622)">
	<g id="Group_172807" transform="translate(0 0.879)">
		<path id="Path_38273" class="st42" d="M28.18,5.02l-2.97-5.63c-0.16-0.35-0.45-0.62-0.81-0.75c-0.37-0.09-0.76-0.03-1.09,0.17
			l-8.46,4.46c-0.62,0.27-0.9,0.99-0.63,1.61c0.02,0.05,0.04,0.09,0.07,0.14l0.56,1.06L13,7.04l-0.07-0.13
			c-0.16-0.3-0.36-0.67-0.47-0.9c-0.28-0.62-1-0.9-1.62-0.62c-0.05,0.02-0.1,0.05-0.15,0.08L9.71,5.98C8.68,6.53,7.64,7.07,6.6,7.63
			c-2.36,1.22-4.07,3.39-4.7,5.97c-0.09,0.35-0.15,0.72-0.21,1.08L1.6,15.2l0.01,1.45l0.08,0.44c0.07,0.38,0.13,0.73,0.21,1.09
			c0.17,0.71,0.43,1.4,0.79,2.04l0.05,0.09l-0.07,0.08c-0.24,0.22-0.45,0.47-0.63,0.74c-0.14,0.23-0.24,0.47-0.31,0.73l-0.08,0.25
			l-0.03,0.73l0.03,0.21l0.02,0.05c0.18,0.99,0.91,1.8,1.89,2.06c1.01,0.33,2.12,0.02,2.82-0.78c0.05-0.06,0.1-0.12,0.15-0.17
			l0.08-0.08l0.09,0.06c1.75,0.89,3.75,1.21,5.69,0.89c2.61-0.42,4.92-1.93,6.35-4.15c1.44-2.24,1.86-4.99,1.16-7.56
			c-0.44-1.23,0.15-2.6,1.35-3.12l6.34-3.32c0.36-0.16,0.64-0.45,0.79-0.81C28.45,5.75,28.39,5.35,28.18,5.02z M5.3,22.86
			c-0.04,0.03-0.07,0.06-0.1,0.1c-0.11,0.12-0.23,0.23-0.36,0.32c-0.14,0.11-0.32,0.17-0.5,0.16c-0.25,0-0.49-0.1-0.66-0.29
			c-0.3-0.32-0.31-0.82-0.03-1.16c0.1-0.11,0.2-0.21,0.31-0.3c0.05-0.04,0.08-0.08,0.13-0.12l0.1-0.1l1.22,1.28L5.3,22.86z
			 M20.08,8.1c-2.18,1.06-3.27,3.55-2.57,5.88c0.17,0.62,0.26,1.26,0.26,1.9c0,2.96-1.89,5.58-4.69,6.51
			c-0.7,0.23-1.43,0.35-2.17,0.36c-1.26-0.01-2.49-0.35-3.56-1.01c-1.73-1.03-2.91-2.78-3.21-4.78c-0.48-2.86,0.91-5.72,3.47-7.1
			c0.8-0.45,1.63-0.88,2.43-1.31l0.78-0.41l0.53,1.01c0.26,0.63,0.99,0.93,1.62,0.66c0.06-0.03,0.13-0.06,0.18-0.1l3.8-2.01
			c0.64-0.24,0.96-0.95,0.72-1.59c-0.04-0.09-0.08-0.18-0.14-0.27L17.02,4.9l6.52-3.44l2,3.79L20.08,8.1z"/>
	</g>
	<g id="Group_172808" transform="translate(6.975 0.026)">
		<path id="Path_38274" class="st42" d="M4.16,2.52C4.01,2.6,3.84,2.65,3.66,2.65c-0.4,0-0.77-0.23-0.95-0.59
			C2.41,1.49,2.05,0.82,1.71,0.14C1.54-0.18,1.56-0.57,1.75-0.88c0.23-0.35,0.62-0.55,1.03-0.54c0.36,0.03,0.69,0.24,0.85,0.57
			c0.33,0.64,0.67,1.28,1,1.91C4.91,1.59,4.7,2.24,4.18,2.52C4.17,2.52,4.17,2.52,4.16,2.52z"/>
	</g>
	<g id="Group_172809" transform="translate(11.315)">
		<path id="Path_38275" class="st42" d="M4.49,0.05C4.21,0.76,3.91,1.47,3.65,2.07C3.49,2.46,3.1,2.71,2.68,2.7H2.67
			c-0.36,0-0.7-0.18-0.9-0.47c-0.2-0.29-0.24-0.65-0.11-0.98c0.23-0.59,0.47-1.21,0.82-2.02c0.23-0.54,0.85-0.8,1.4-0.58
			C4.42-1.12,4.69-0.5,4.49,0.05z"/>
	</g>
	<g id="Group_172810" transform="translate(3.334 3.636)">
		<path id="Path_38276" class="st42" d="M5.78,0.29c-0.1,0.54-0.58,0.93-1.13,0.9L3.43,0.94L2.46,0.73C1.88,0.6,1.51,0.05,1.61-0.54
			C1.73-1.13,2.3-1.51,2.89-1.4c0.01,0,0.01,0,0.02,0c0.76,0.15,1.44,0.3,2.07,0.45C5.53-0.81,5.88-0.27,5.78,0.29z"/>
	</g>
	<g id="Group_172811" transform="translate(5.543 15.272)">
		<path id="Path_38277" class="st42" d="M7.19-0.49c-0.6-0.6-1.41-0.93-2.25-0.93c-0.89,0-1.74,0.35-2.36,0.99
			C1.94,0.19,1.58,1.05,1.59,1.94c0,1.75,1.43,3.18,3.18,3.18c0.89,0,1.74-0.35,2.37-0.98C7.76,3.5,8.11,2.65,8.11,1.76
			C8.12,0.92,7.78,0.1,7.19-0.49z M4.78,4.35H4.77c-0.64,0-1.26-0.25-1.71-0.71C2.6,3.19,2.35,2.57,2.35,1.92
			c0-1.42,1.16-2.58,2.58-2.58c0.64,0,1.26,0.25,1.72,0.7c0.45,0.46,0.7,1.08,0.7,1.72C7.34,3.18,6.2,4.33,4.78,4.35z"/>
	</g>
</g>
</svg>
