<?xml version="1.0" encoding="utf-8"?>
<!-- Generator: Adobe Illustrator 25.4.1, SVG Export Plug-In . SVG Version: 6.00 Build 0)  -->
<svg version="1.1" id="Layer_1" xmlns="http://www.w3.org/2000/svg" xmlns:xlink="http://www.w3.org/1999/xlink" x="0px" y="0px"
	 viewBox="0 0 40 40" style="enable-background:new 0 0 40 40;" xml:space="preserve">
<style type="text/css">
	.st0{fill:#929630;}
</style>
<g id="Group_172862" transform="translate(97.594 0.608)">
	<g id="Group_172852" transform="translate(0)">
		<path id="Path_38301" class="st0" d="M-96.1,24.7c0.2-0.3,0.6-0.5,0.9-0.4c11.7,0,23.4,0,35.1,0c0.8,0,0.9,0.2,0.9,0.9
			c-0.1,3.3-1.4,6.4-3.7,8.7c-2,2-4.6,3.3-7.4,3.7c-0.4,0.1-0.7,0.1-1.1,0.1h-12.5c-0.1,0-0.1,0-0.2-0.1c-2.1-0.1-4.1-0.8-5.9-1.9
			c-3.3-2-5.4-5.4-6-9.1c-0.1-0.4-0.1-0.8-0.1-1.1L-96.1,24.7z M-60.4,25.6h-34.4c0.1,1.9,0.6,3.7,1.6,5.3c2.1,3.6,6,5.8,10.1,5.7
			c3.6,0,7.3,0,10.9,0c4.5,0,8.7-2.6,10.6-6.6C-60.8,28.6-60.5,27.1-60.4,25.6z"/>
		<path id="Path_38302" class="st0" d="M-96.1,17.2c0.1-0.8,0.6-1.5,1.3-1.9c0.3-0.1,0.6-0.2,0.9-0.2c0.2,0,0.4-0.1,0.5-0.4
			c0.5-1.3,1.9-1.9,3.2-1.3c0.6,0.2,1.1,0.7,1.3,1.3c0.1,0.2,0.2,0.4,0.5,0.4c1.3,0.1,2.3,1.4,2.2,2.7c-0.1,1.3-1.3,2.2-2.5,2.2
			c-0.2,0-0.3,0-0.5,0c0,0.6,0,1.1,0,1.6c0,0.6-0.2,0.8-0.8,0.8c-0.7,0-1.4,0-2.1,0c-0.6,0-0.8-0.2-0.8-0.8c0-0.5,0-1.1,0-1.7
			c-0.3,0-0.5,0-0.7,0c-1.1,0-2.1-0.8-2.3-1.9c0-0.1,0-0.1-0.1-0.2L-96.1,17.2z M-91.1,18.8c0.9,0,1.7,0,2.6,0
			c0.6,0,1.1-0.6,1.1-1.2c0-0.6-0.4-1.1-1-1.2c-0.2,0-0.4,0-0.6,0c-0.6,0-0.7-0.2-0.8-0.7c-0.1-0.6-0.6-1.1-1.2-1.1
			c-0.6,0-1.2,0.4-1.2,1c-0.1,0.7-0.2,0.8-1,0.8c-0.2,0-0.4,0-0.5,0c-0.4,0.1-0.8,0.4-0.9,0.8c-0.2,0.6,0.1,1.3,0.7,1.5
			c0.1,0,0.2,0.1,0.3,0.1C-92.9,18.8-92,18.8-91.1,18.8L-91.1,18.8z M-90.5,21.2v-1.2h-1.2v1.2H-90.5z"/>
		<path id="Path_38303" class="st0" d="M-96.1,7.7h1.2v1.2h-1.2V7.7z"/>
		<path id="Path_38304" class="st0" d="M-71,2.6c0.4-0.4,0.9-0.8,1.3-1.1c1.2-0.8,2.8-0.7,3.8,0.3c1.1,1,1.4,2.6,0.7,3.9
			c-0.2,0.4-0.5,0.7-0.8,1C-66,6.9-66.2,7-66.4,7.2c1.1,0.4,1.8,1.5,1.7,2.7c-1.9,0.9-2.9,2.9-2.4,4.9c-0.7,0.7-1.7,1.1-2.7,0.9
			c0.1,0.4,0.2,0.9,0.2,1.4c0,1.3-1.2,2.4-2.5,2.3c-1.2,0-2.4,0-3.6,0c-2.1,0-4.1,0-6.2,0c-0.2,0-0.4,0.1-0.5,0.2c-1,1-2,2-3,3
			c-0.1,0.1-0.2,0.2-0.2,0.3l-0.9-0.9c0.1-0.1,0.1-0.2,0.2-0.3c1-1,2-2,3-3c0.1-0.2,0.2-0.3,0.2-0.6c0-2.8,0-5.6,0-8.4
			c-0.1-1.1,0.6-2.2,1.7-2.6c0.5-0.2,1.1-0.2,1.6,0c0.1,0,0.2,0.1,0.4,0.1c0-0.4,0-0.7,0-1C-79.4,5-78.2,4-76.8,4
			c0.3,0,0.6,0.1,0.9,0.2c0,0,0.1,0,0.2,0.1c0-0.3,0-0.6,0-0.9c0-1.3,1.1-2.4,2.4-2.4c0.9,0,1.8,0.5,2.2,1.4
			C-71.1,2.4-71,2.5-71,2.6z M-79.4,14.7L-79.4,14.7c0.5-0.4,0.9-0.9,1.4-1.3c0.8-0.6,1.3-1.6,1.1-2.6c0-0.6-0.1-1.3,0-1.9h1.3v2.2
			c0.8-0.8,1.5-1.5,2.2-2.2c0.1-0.2,0.2-0.4,0.2-0.6c0-0.6,0-1.2,0-1.8V5.9h1.2v1.6l2.6-2.6l0.9,0.9l-2.6,2.6h1.5v1.2H-70
			c-0.7,0-1.4,0-2.1,0c-0.2,0-0.4,0.1-0.5,0.2c-0.7,0.6-1.3,1.3-2,2c-0.1,0.1-0.1,0.1-0.2,0.3h2.1v1.2h-0.4c-0.9,0-1.8,0-2.6,0
			c-0.3,0-0.5,0.1-0.7,0.3c-0.6,0.6-1.3,1.3-1.9,1.9c-0.1,0.1-0.1,0.2-0.2,0.3h2.8v1.2c-1.3,0-2.5,0-3.7,0c-0.1,0-0.3,0-0.4,0.1
			c-0.4,0.3-0.8,0.7-1.1,1.1l0.1,0.1h0.2c2.8,0,5.7,0,8.5,0c0.7,0.1,1.3-0.4,1.3-1.1c0.1-0.7-0.4-1.3-1.1-1.3c0,0,0,0-0.1,0
			c-0.2,0-0.4-0.1-0.5-0.3c-0.1-0.2-0.1-0.4,0-0.6c0.1-0.2,0.3-0.3,0.6-0.3c0.9,0,1.8,0,2.7,0c0.2,0,0.4,0,0.6-0.1
			c0.6-0.2,1-0.7,0.9-1.3c0-0.6-0.5-1.1-1.1-1.1c-0.1,0-0.3,0-0.3-0.1c-0.2-0.1-0.4-0.3-0.4-0.5c0-0.2,0.1-0.4,0.3-0.6
			c0.1-0.1,0.3-0.1,0.5-0.1c0.6,0,1.2,0,1.8,0c0.6,0,1.1-0.5,1.1-1.2c0-0.6-0.4-1.2-1.1-1.3c-0.2,0-0.4,0-0.6,0
			c-0.3,0-0.6-0.1-0.7-0.4c-0.1-0.3,0-0.6,0.3-0.8c0.5-0.5,1-1,1.5-1.5c0.8-0.8,0.8-2.1,0-2.9c0,0,0,0,0,0C-67.4,2-68.6,2-69.4,2.8
			c0,0,0,0,0,0c-0.5,0.5-1,1-1.5,1.5c-0.2,0.3-0.6,0.4-0.9,0.2C-72,4.4-72.1,4.1-72,3.9c0-0.3,0-0.5-0.1-0.8c-0.2-0.6-0.7-1-1.3-0.9
			c-0.6,0.1-1.1,0.6-1.1,1.2c0,0.1,0,0.3,0,0.4c0,0.9,0,1.7,0,2.6c0,0.5-0.2,0.7-0.6,0.7s-0.6-0.2-0.6-0.6c0-0.1,0-0.1,0-0.2
			c-0.1-0.6-0.7-1-1.3-1c-0.7,0.1-1.2,0.7-1.1,1.4c0,0.9,0,1.7,0,2.6c0,0.6-0.2,0.9-0.6,0.9c-0.4,0-0.6-0.2-0.7-0.8
			c-0.1-0.7-0.7-1.1-1.4-1c-0.1,0-0.1,0-0.2,0c-0.6,0.2-0.9,0.8-0.9,1.4c0,2.4,0,4.7,0,7.1v0.3l0.1,0.1c0.3-0.3,0.6-0.6,0.9-0.9
			c0.1-0.1,0.2-0.3,0.2-0.5c0-0.9,0-1.8,0-2.6V12h1.2L-79.4,14.7z"/>
		<path id="Path_38305" class="st0" d="M-88.9,3.2c0.6-0.6,1.5-0.8,2.3-0.7c1.1,0.1,2,0.9,2.3,1.9c0.4,1,0.1,2.2-0.8,2.9
			c-0.5,0.4-0.8,0.9-0.8,1.5c-0.2,1.4-1.4,2.4-2.8,2.5c-1.4,0.1-2.6-0.8-3.1-2.1c-0.1-0.4-0.1-0.7-0.2-1.1c0-0.2-0.1-0.3-0.2-0.4
			c-0.5-0.3-1-0.8-1.3-1.3c-0.7-1.4-0.2-3.1,1.2-3.8c1-0.5,2.1-0.4,3,0.2L-88.9,3.2z M-88.8,10.2c0.9,0,1.7-0.6,1.8-1.5
			c0-0.9,0.4-1.7,1.1-2.1c0.7-0.5,0.8-1.4,0.3-2.1c0,0,0,0-0.1-0.1c-0.5-0.7-1.5-0.8-2.2-0.3c-0.2,0.1-0.3,0.3-0.5,0.4
			c-0.2,0.2-0.6,0.2-0.9,0c-0.3-0.2-0.5-0.4-0.8-0.6c-0.7-0.5-1.7-0.4-2.2,0.3c0,0,0,0,0,0c-0.5,0.7-0.4,1.7,0.3,2.2c0,0,0,0,0,0
			c0.1,0.1,0.3,0.2,0.4,0.3c0.6,0.3,1,0.9,0.9,1.6c0,0.1,0,0.1,0,0.2C-90.6,9.4-89.8,10.2-88.8,10.2L-88.8,10.2z"/>
		<path id="Path_38306" class="st0" d="M-63.4,14.5c2.4,0,4.3,1.9,4.3,4.3s-1.9,4.3-4.3,4.3c-2.4,0-4.3-1.9-4.3-4.3
			C-67.7,16.4-65.8,14.5-63.4,14.5z M-63.4,15.7c-1.7,0-3.1,1.4-3.1,3.1c0,1.7,1.4,3.1,3.1,3.1c1.7,0,3.1-1.4,3.1-3.1
			C-60.4,17.1-61.7,15.7-63.4,15.7z"/>
		<path id="Path_38307" class="st0" d="M-74.5,23.1c0-1.3,1.1-2.4,2.4-2.4s2.4,1.1,2.4,2.4h-1.2c-0.3-0.9-0.7-1.2-1.3-1.2
			c-0.6,0-1.2,0.6-1.2,1.2H-74.5z"/>
		<path id="Path_38308" class="st0" d="M-62.8,9.5V8.4c0.9-0.4,1.2-0.7,1.2-1.3s-0.4-1-1.2-1.2V4.7c1.3,0,2.4,1.1,2.4,2.4
			S-61.5,9.5-62.8,9.5L-62.8,9.5z"/>
		<path id="Path_38309" class="st0" d="M-94.8,10.2h1.2v1.2h-1.2V10.2z"/>
		<path id="Path_38310" class="st0" d="M-78.8,21.3h1.2v1.2h-1.2V21.3z"/>
		<path id="Path_38311" class="st0" d="M-82.5,1.6h1.2v1.2h-1.2V1.6z"/>
		<path id="Path_38312" class="st0" d="M-65.3,18.8c0-1,0.8-1.8,1.8-1.8c1,0,1.9,0.8,1.9,1.8c0,1-0.8,1.9-1.8,1.9c0,0,0,0-0.1,0
			C-64.5,20.6-65.3,19.8-65.3,18.8z M-63.5,18.2c-0.3,0-0.6,0.3-0.6,0.6c0,0.3,0.3,0.6,0.6,0.6c0.3,0,0.6-0.3,0.6-0.6
			C-62.8,18.4-63.1,18.2-63.5,18.2z"/>
	</g>
</g>
</svg>
