<?xml version="1.0" encoding="utf-8"?>
<!-- Generator: Adobe Illustrator 25.4.1, SVG Export Plug-In . SVG Version: 6.00 Build 0)  -->
<svg version="1.1" id="Layer_1" xmlns="http://www.w3.org/2000/svg" xmlns:xlink="http://www.w3.org/1999/xlink" x="0px" y="0px"
	 viewBox="0 0 40 40" style="enable-background:new 0 0 40 40;" xml:space="preserve">
<style type="text/css">
	.st0{fill:#0D659D;}
</style>
<g id="Group_172851" transform="translate(0 0)">
	<path id="Path_38297" class="st0" d="M34.5,38.7c-0.7-0.1-1.4-0.2-2.1-0.3c-1.6-0.3-3.2-0.8-4.8-1.5c-0.2-0.1-0.4-0.1-0.6-0.1
		c-3,0.7-6.1,1-9.2,0.9c-2.9-0.1-5.8-1-8.2-2.6c-1.4-0.9-2.7-1.8-4-2.8C4.9,31.8,4,31.3,3.1,31c-0.8-0.2-1.3-0.9-1.2-1.7
		c0-1.7,0.3-3.4,0.8-5c1.5-5.8,3.1-11.5,4.7-17.3C7.6,6.4,8,6,8.5,5.8c3.2-1.5,6.4-2.9,9.6-4.4c0.5-0.2,0.7-0.2,1.1,0.3
		c1,1.3,2.1,2.7,3.1,4C23,6.4,23,7.6,22.2,8.3c0,0,0,0,0,0c-0.9,1-1.8,2.1-2.8,3.1c-0.6,0.8-1.7,1-2.5,0.4c-0.1-0.1-0.2-0.1-0.3-0.2
		c-0.2-0.2-0.4-0.4-0.6-0.5l-1.7,0.5c0.2,3.2,0.4,6.4,0.6,9.7c1.5-1,3.2-1.4,5-1.4c1.7,0.1,3.3,0.6,4.8,1.6c0.5-0.5,1-0.9,1.5-1.3
		c2.6-2.4,6.4-3,9.6-1.3c0.7,0.3,1.3,0.7,1.9,1.1c0.3,0.1,0.5,0.5,0.3,0.8c0,0,0,0.1-0.1,0.1c-0.2,0.3-0.6,0.3-1,0
		c-1.3-1-2.9-1.6-4.6-1.8c-2.2-0.2-4.3,0.7-5.7,2.3c-0.3,0.3-0.5,0.6-0.8,0.9c0.2,0.3,0.4,0.5,0.6,0.8c0.5,0.6,0.8,1.3,1,2.1
		c0.1,0.5-0.1,0.8-0.5,0.9s-0.6-0.2-0.8-0.6c-0.3-1.2-1.1-2.2-2.1-2.9c-2.7-2-6.3-1.9-8.9,0.1c-0.1,0.1-0.2,0.3-0.3,0.4
		c-0.2,0.6-0.4,1.2-0.7,1.7c-0.2,0.3-0.4,0.5-0.8,0.7c-0.3,0.1-0.6,0-0.8-0.2c0,0,0,0,0,0c-0.1-0.3,0-0.6,0.2-0.8
		c0.1-0.1,0.3-0.2,0.3-0.4c0.4-0.7,0.6-1.5,0.6-2.3c-0.2-3.1-0.4-6.2-0.5-9.3c-0.1-0.3-0.2-0.6-0.4-0.9c-0.1-0.2-0.2-0.3-0.3-0.5
		c-0.1-0.4,0.2-0.7,0.7-0.7c0.5,0,1,0,1.6-0.1c0.3-0.1,0.6-0.2,0.8-0.4c0.3-0.3,0.7-0.3,0.9,0c0.4,0.3,0.7,0.6,1.1,1s0.6,0.3,0.9,0
		c1-1.1,1.9-2.1,2.9-3.2c0.3-0.2,0.3-0.5,0.1-0.8c0,0,0-0.1-0.1-0.1c-1-1.3-1.9-2.5-2.9-3.8c0,0-0.1-0.1-0.1-0.1l-4.7,2.2
		c-1.5,0.7-3,1.4-4.6,2.1C8.9,7,8.7,7.2,8.7,7.4C7.5,11.8,6.2,16.2,5,20.6c-0.6,2.4-1.2,4.8-1.8,7.2c-0.1,0.6-0.1,1.1-0.1,1.7
		c0,0.1,0.1,0.2,0.1,0.2c0,0,0.1,0,0.1,0c1.8,0.5,3.1,1.8,4.6,2.8c1.5,1.1,3.1,2,4.7,2.8c2.1,0.9,4.4,1.3,6.7,1.2
		c2.6,0,5.2-0.4,7.7-1c0.2,0,0.5,0,0.7,0.1c2.8,1.4,5.9,2,9.1,1.8c0.2,0,0.3,0,0.5,0c0.3,0,0.6,0.2,0.6,0.5c0,0.3-0.2,0.6-0.5,0.7
		c-0.3,0.1-0.6,0.1-0.9,0.1L34.5,38.7z"/>
	<path id="Path_38298" class="st0" d="M31.5,4.9c0.1-0.1,0.3-0.2,0.4-0.4c1.3-1.2,3.2-1.1,4.4,0.1c1.2,1.2,1.3,3.1,0.1,4.4
		C35,10.6,33.5,12,32,13.5c-0.2,0.3-0.6,0.3-0.9,0.1c0,0-0.1-0.1-0.1-0.1c-1.4-1.4-2.9-2.8-4.3-4.3c-1.2-1.2-1.3-3.3,0-4.5
		c1.2-1.2,3.3-1.3,4.5,0L31.5,4.9z M31.5,12.2c1.4-1.3,2.7-2.6,4-4c0.7-0.8,0.7-1.9-0.1-2.6c-0.7-0.7-1.9-0.8-2.7-0.1
		C32.5,5.7,32.3,6,32,6.2c-0.2,0.3-0.6,0.3-0.9,0.1c0,0-0.1-0.1-0.1-0.1c-0.2-0.2-0.4-0.4-0.6-0.6c-0.7-0.8-1.9-0.9-2.7-0.2
		c-0.8,0.7-0.9,1.9-0.2,2.7c0,0.1,0.1,0.1,0.1,0.1c0.6,0.6,1.1,1.1,1.7,1.7L31.5,12.2z"/>
	<path id="Path_38299" class="st0" d="M19.6,34.6c-4.2-0.2-7.2-1.5-9.6-4.3c-0.2-0.2-0.3-0.4-0.5-0.6c-0.2-0.3-0.2-0.6,0.1-0.9
		c0,0,0,0,0.1-0.1c0.3-0.2,0.7-0.1,0.9,0.2c0,0,0,0,0,0.1c0.8,1.1,1.8,2.1,2.9,2.8c2,1.2,4.3,1.8,6.6,1.6c0.7,0,1.4-0.2,2.2-0.3
		c0.4-0.1,0.8,0.1,0.8,0.5c0.1,0.3-0.1,0.7-0.4,0.7c0,0-0.1,0-0.1,0C21.4,34.4,20.2,34.6,19.6,34.6z"/>
	<path id="Path_38300" class="st0" d="M37.3,32.4c-1.2-0.1-2.4-0.5-3.4-1.2c-0.3-0.2-0.6-0.5-0.8-0.9c-0.2-0.3-0.2-0.7,0.1-0.9
		c0,0,0.1-0.1,0.1-0.1c0.4-0.2,0.6,0,0.9,0.5c0.1,0.3,0.4,0.4,0.6,0.6c0.8,0.3,1.5,0.5,2.3,0.7c0.1,0,0.2,0,0.3,0.1
		c0.3,0.1,0.5,0.4,0.4,0.7C38,32.2,37.7,32.4,37.3,32.4z"/>
</g>
</svg>
