<svg xmlns="http://www.w3.org/2000/svg" width="28.017" height="28" viewBox="0 0 28.017 28">
  <path id="Path_38595" data-name="Path 38595" d="M-1504.623-235.574l-8.854-8.856a5.846,5.846,0,0,0-8.256,0l-8.854,8.856a3.476,3.476,0,0,0-1.026,2.476v11.46a3.5,3.5,0,0,0,3.5,3.5h21.013a3.5,3.5,0,0,0,3.5-3.5V-233.1A3.476,3.476,0,0,0-1504.623-235.574Zm-9.48,15.1h-7v-4.592a3.5,3.5,0,0,1,3.5-3.5,3.5,3.5,0,0,1,3.5,3.5Zm8.172-1.167a1.167,1.167,0,0,1-1.167,1.167h-4.669v-4.592a5.837,5.837,0,0,0-5.837-5.837,5.837,5.837,0,0,0-5.837,5.837v4.592h-4.669a1.167,1.167,0,0,1-1.167-1.167V-233.1a1.177,1.177,0,0,1,.342-.825l8.855-8.852a3.512,3.512,0,0,1,4.954,0l8.854,8.856a1.176,1.176,0,0,1,.342.822Z" transform="translate(1531.614 246.136)" fill="#5b6e80"/>
</svg>
