<?xml version="1.0" encoding="utf-8"?>
<!-- Generator: Adobe Illustrator 25.4.1, SVG Export Plug-In . SVG Version: 6.00 Build 0)  -->
<svg version="1.1" id="Layer_1" xmlns="http://www.w3.org/2000/svg" xmlns:xlink="http://www.w3.org/1999/xlink" x="0px" y="0px"
	 viewBox="0 0 30 30" style="enable-background:new 0 0 30 30;" xml:space="preserve">
<style type="text/css">
	.st0{fill:#5B6E80;}
</style>
<path class="st0" d="M26.9,14.1c-0.2,0-0.3-0.1-0.4-0.1L19,14V9.3c0-0.5-0.3-0.8-0.5-0.9c-0.4-0.2-0.8-0.2-1.2,0.1l-0.2,0.2
	c-0.1,0.1-0.2,0.2-0.3,0.2c-0.8,0.7-1.6,1.4-2.4,2.1c-0.5,0.5-1,0.9-1.6,1.4l-1.1,1c-0.4,0.3-0.7,0.6-1,0.9
	c-0.2,0.2-0.3,0.4-0.3,0.7c0,0.3,0.1,0.5,0.3,0.7c0.1,0.1,0.2,0.1,0.3,0.2C11,16,11,16,11.1,16l5.1,4.5c0.3,0.3,0.7,0.6,1,0.9
	c0.3,0.2,0.5,0.3,0.7,0.3c0.2,0,0.4-0.1,0.5-0.1c0.5-0.3,0.5-0.8,0.5-0.9l0-4.7h7.5c0.1,0,0.2,0,0.2,0c0.5,0,0.8-0.4,0.9-0.9
	C27.6,14.6,27.4,14.2,26.9,14.1z M17,11.4v7.3L16.3,18c-0.4-0.4-0.8-0.7-1.3-1.1c-0.6-0.5-1.1-1-1.7-1.5L12.8,15L17,11.4z"/>
<g>
	<path class="st0" d="M25.7,24.2c-0.2,0.8-1.3,2.2-3.9,2.2h-15c-1.2,0-4.2-0.9-4.2-4.8V8.3c0-3.9,3-4.8,4.2-4.8h15
		c2.6,0,3.7,1.4,3.9,2.2c0.2,0.6-0.2,1.2-0.8,1.4c-0.6,0.2-1.2-0.2-1.4-0.8c0-0.1-0.3-0.6-1.7-0.6h-15c-0.4,0-1.9,0.3-1.9,2.5v13.3
		c0,2.2,1.5,2.5,1.9,2.5h15c1.3,0,1.6-0.5,1.7-0.6c0.2-0.6,0.8-0.9,1.4-0.8C25.5,23,25.8,23.6,25.7,24.2z"/>
</g>
</svg>
