<?xml version="1.0" encoding="utf-8"?>
<!-- Generator: Adobe Illustrator 25.4.1, SVG Export Plug-In . SVG Version: 6.00 Build 0)  -->
<svg version="1.1" id="Layer_1" xmlns="http://www.w3.org/2000/svg" xmlns:xlink="http://www.w3.org/1999/xlink" x="0px" y="0px"
	 viewBox="0 0 40 40" style="enable-background:new 0 0 40 40;" xml:space="preserve">
<style type="text/css">
	.st0{fill:#ED4540;}
</style>
<path id="Path_38296" class="st0" d="M39.9,32.8c-0.1,0.3-0.3,0.6-0.5,0.9c-0.4,0.5-0.9,0.8-1.6,0.7c-0.3,0-0.5,0-0.8,0
	c0,0.4,0,0.7,0,1.1c0.1,0.8-0.6,1.6-1.4,1.6c-0.1,0-0.1,0-0.2,0c-1.5,0-3,0-4.5,0c-0.8,0.1-1.6-0.5-1.6-1.4c0-0.1,0-0.1,0-0.2
	c0-0.9,0-1.7,0-2.6c0-0.1,0-0.3,0-0.5c-0.8,0.1-1.6,0.2-2.4,0.2c-1,0.1-1.9,0.1-2.9,0.1c-0.4,0-0.7-0.2-0.7-0.6s0.2-0.6,0.7-0.6
	c1.6-0.1,3.3-0.2,4.9-0.3c0.4,0,0.5-0.2,0.5-0.5c0-0.8,0-1.7,0-2.5c0-0.3-0.1-0.3-0.4-0.4c-3.4-0.3-6.8-0.4-10.2-0.2
	c-0.9,0-1.9,0.2-2.8,0.2c-0.2,0-0.3,0.1-0.3,0.3c0,0.9,0,1.8,0,2.8c0,0.2,0.1,0.3,0.3,0.3c1.6,0.1,3.2,0.2,4.8,0.3
	c0.1,0,0.3,0,0.4,0c0.3,0,0.5,0.3,0.5,0.6c0,0.3-0.2,0.5-0.5,0.6c0,0,0,0,0,0c-0.4,0-0.7,0-1.1,0c-1.3-0.1-2.6-0.2-3.9-0.3
	c-0.2,0-0.3,0-0.5,0V33c0,0.8,0,1.7,0,2.5c0.1,0.8-0.6,1.6-1.4,1.6c-0.1,0-0.2,0-0.3,0c-1.5,0-2.9,0-4.4,0C8.8,37.2,8,36.6,8,35.8
	c0-0.1,0-0.2,0-0.3c0-0.3,0-0.7,0-1c-0.3,0-0.5,0-0.8,0c-1.1,0-2-0.8-2.1-1.9c0,0,0-0.1,0-0.1c0-0.7,0-1.4,0-2.1
	c0-0.2,0-0.3-0.3-0.4c-0.5-0.1-0.9-0.5-1.2-0.9c-1-1.4-2-2.7-3-4.1c-0.7-0.8-0.7-2.1,0.2-2.9C0.9,22,1,21.9,1.1,21.9l0.4-0.3
	c-0.2-0.4-0.4-0.9-0.5-1.4c-0.2-0.8,0.1-1.5,0.7-2c0.9-0.8,1.9-1.5,2.9-2.1c0.9-0.5,2.1-0.4,2.8,0.4c0.5,0.5,0.8,1.1,1.3,1.7L9,18.5
	c3.4-3,7.1-5.7,11-8l-1.7-2.3c-0.6-0.6-0.6-1.6,0-2.2c0.1-0.1,0.2-0.2,0.4-0.3c1.1-0.8,2.3-1.7,3.4-2.5c0.6-0.6,1.6-0.6,2.2,0.1
	c0.1,0.1,0.2,0.2,0.2,0.3c0.2,0.2,0.4,0.5,0.6,0.8c0.2-0.2,0.4-0.3,0.7-0.5c0.8-0.7,2-0.6,2.7,0.3c0,0,0,0,0.1,0.1
	c1.2,1.5,2.3,3,3.4,4.6c0.6,0.9,0.4,2.1-0.5,2.7c0,0,0,0,0,0c-0.2,0.2-0.4,0.3-0.7,0.5c0.2,0.3,0.4,0.6,0.6,0.9
	c0.5,0.6,0.5,1.6-0.2,2.1c-0.1,0-0.1,0.1-0.2,0.1c-1.2,0.9-2.4,1.8-3.6,2.6c-0.6,0.5-1.6,0.4-2.1-0.2c0-0.1-0.1-0.1-0.1-0.2
	c-0.6-0.8-1.2-1.6-1.7-2.4c-1.5,1.2-3,2.5-4.6,3.7s-3.2,2.3-4.8,3.4c0.1,0,0.1,0,0.2,0c0.8,0,1.5,0.6,1.6,1.4c0,0,0,0.1,0,0.1
	c0,0.9,0,1.7,0,2.6c0,0.1,0,0.3,0,0.5c4.5-0.5,9.1-0.5,13.6,0c0-0.2,0-0.4,0-0.5c0-0.9,0-1.8,0-2.7c0-0.8,0.6-1.4,1.4-1.4
	c1.6,0,3.2,0,4.9,0c0.8,0,1.4,0.7,1.4,1.5c0,0.4,0,0.8,0,1.2c0.3,0,0.6,0,0.8,0c0.9,0,1.7,0.6,2,1.4c0,0.1,0.1,0.1,0.1,0.2v1.7
	c-0.2,0.3-0.4,0.5-0.8,0.4s-0.4-0.4-0.4-0.8c0-0.3,0-0.6,0-0.9c0-0.4-0.2-0.7-0.6-0.8c-0.4,0-0.7,0-1.1,0v7.1h0.6c0.7,0,1-0.3,1-1
	c0-0.5,0-0.9,0-1.4c0-0.3,0.2-0.6,0.5-0.6c0.1,0,0.2,0,0.3,0.1c0.1,0.1,0.2,0.2,0.3,0.3L39.9,32.8z M26.3,17.1
	c0.1-0.1,0.2-0.1,0.4-0.2c1.2-0.9,2.4-1.7,3.6-2.6c0.2-0.1,0.3-0.4,0.2-0.6c0,0-0.1-0.1-0.1-0.1c-2.3-3.1-4.6-6.3-6.8-9.4
	C23.5,4,23.2,3.9,23,4.1c-0.1,0-0.1,0.1-0.1,0.1c-1.2,0.9-2.3,1.7-3.5,2.6C19,7,19,7.1,19.2,7.5c0.5,0.6,0.9,1.3,1.4,1.9
	c1.8,2.5,3.6,4.9,5.4,7.4C26.1,16.8,26.2,17,26.3,17.1L26.3,17.1z M14.5,29.7c0-1.9,0-3.8,0-5.7c0-0.5-0.1-0.6-0.6-0.6
	c-1.4,0-2.8,0-4.2,0c-0.5,0-0.6,0.1-0.6,0.6c0,3.8,0,7.6,0,11.5c0,0.5,0.1,0.6,0.6,0.6c1.4,0,2.8,0,4.2,0c0.6,0,0.6-0.1,0.6-0.6
	C14.5,33.5,14.5,31.6,14.5,29.7L14.5,29.7z M30.4,29.7c0,1.9,0,3.8,0,5.7c0,0.5,0.1,0.6,0.6,0.6c1.4,0,2.8,0,4.2,0
	c0.5,0,0.6-0.1,0.6-0.6c0-3.8,0-7.6,0-11.5c0-0.5-0.1-0.6-0.6-0.6c-1.4,0-2.8,0-4.2,0c-0.6,0-0.6,0.1-0.6,0.6
	C30.4,25.9,30.4,27.8,30.4,29.7L30.4,29.7z M11.7,22.1c3.9-2.3,7.6-4.9,11-8l-2-2.7c-3.9,2.3-7.6,4.9-11,8L11.7,22.1z M10.3,22.2
	c-0.1-0.1-0.1-0.2-0.2-0.3c-1.1-1.5-2.2-3-3.3-4.5c-0.3-0.6-1-0.8-1.6-0.5C5.1,17,5,17.1,5,17.2c-0.7,0.5-1.4,1-2.1,1.6
	c-0.6,0.3-0.9,1-0.6,1.6c0.1,0.1,0.2,0.3,0.3,0.4c1,1.4,2,2.8,3,4.1c0.1,0.2,0.2,0.3,0.4,0.5c0.6-0.5,1.3-0.4,2-0.4
	c0.1-0.7-0.1-1.5,0.3-2.1C8.8,22.2,9.5,22.2,10.3,22.2L10.3,22.2z M30,11.2c0.2-0.1,0.3-0.2,0.5-0.4c0.7-0.5,0.7-0.9,0.2-1.6
	c-0.4-0.6-0.9-1.2-1.3-1.8c-0.5-0.8-1.1-1.5-1.6-2.3c-0.2-0.4-0.8-0.6-1.2-0.4c-0.1,0-0.2,0.1-0.2,0.2c-0.2,0.1-0.4,0.3-0.6,0.4
	L30,11.2z M7.9,26.1c-0.2,0-0.5,0-0.7,0c-0.7,0-1,0.3-1,1c0,0.6,0,1.2,0,1.8c0,1.1,0,2.2,0,3.3c0,0.6,0.3,1,0.7,1c0.3,0,0.6,0,1,0
	L7.9,26.1z M2.3,22.4c-0.2,0.1-0.4,0.3-0.5,0.4C1.4,23,1.2,23.5,1.4,24c0,0.1,0.1,0.2,0.2,0.3c1,1.4,2,2.8,3,4.1
	c0.2,0.2,0.3,0.3,0.5,0.5c0-0.6,0-1.3,0-1.9c0.1-0.5-0.1-1-0.4-1.4C3.9,24.6,3.1,23.5,2.3,22.4L2.3,22.4z"/>
</svg>
