<?xml version="1.0" encoding="utf-8"?>
<!-- Generator: Adobe Illustrator 25.4.1, SVG Export Plug-In . SVG Version: 6.00 Build 0)  -->
<svg version="1.1" id="Layer_1" xmlns="http://www.w3.org/2000/svg" xmlns:xlink="http://www.w3.org/1999/xlink" x="0px" y="0px"
	 viewBox="0 0 30 30" style="enable-background:new 0 0 30 30;" xml:space="preserve">
<style type="text/css">
	.st0{fill:#5B6E80;}
	.st1{fill-rule:evenodd;clip-rule:evenodd;fill:#5B6E80;}
</style>
<g id="Group_172816" transform="translate(2491.809 115.406)">
	<path id="Path_38285" class="st0" d="M-2464-111.3c-8.6,0-17.1,0-25.6,0c-0.9,0-1.3,0.4-1.3,1.3v19c0,0.1,0,0.2,0,0.4
		c0,0.4,0.3,0.7,0.6,0.9c0.4,0.2,0.8,0.1,1.1-0.1c0.1-0.1,0.2-0.2,0.3-0.3l3.6-3.6c0.1-0.2,0.4-0.2,0.6-0.2c3.6,0,7.2,0,10.8,0h10.1
		c0.6,0,1.2-0.5,1.2-1.2c0,0,0,0,0,0v-14.9C-2462.7-110.9-2463.1-111.3-2464-111.3z M-2464.8-96.1h-10.1c-3.4,0-6.9,0-10.3,0
		c-0.2,0-0.5,0-0.7,0.1c-0.2,0.1-0.4,0.2-0.6,0.4c-0.5,0.6-1.1,1.1-1.6,1.6c-0.1,0.1-0.2,0.2-0.4,0.3c-0.1,0.1-0.2,0.2-0.3,0.3
		v-15.8h23.9L-2464.8-96.1z"/>
	<path id="Path_38286" class="st0" d="M-2472.8-101.8c-0.1,0.1-0.2,0.1-0.3,0.2c-0.6,0.4-1.2,0.7-1.8,1.1c-1.1,0.7-2.2,1.3-3.4,2
		c-0.5,0.4-1.2,0.3-1.5-0.2c-0.2-0.2-0.3-0.5-0.2-0.8v-6.3c-0.1-0.6,0.4-1.1,1-1.2c0.3,0,0.6,0,0.8,0.2c1.7,1,3.5,2.1,5.2,3.1
		c0.5,0.2,0.8,0.9,0.6,1.4C-2472.6-102-2472.7-101.9-2472.8-101.8z"/>
</g>
</svg>
