<svg xmlns="http://www.w3.org/2000/svg" width="25.554" height="24.523" viewBox="0 0 25.554 24.523">
  <defs>
    <style>
      .cls-1 {
        fill: #5b6e80;
      }
    </style>
  </defs>
  <g id="Group_172991" data-name="Group 172991" transform="translate(-266 -383.674)">
    <g id="Group_172911" data-name="Group 172911" transform="translate(266 383.674)">
      <g id="Group_172910" data-name="Group 172910" transform="translate(0 0)">
        <path id="Path_38399" data-name="Path 38399" class="cls-1" d="M75.867,49.433v10.5l-.042.111a.676.676,0,0,1-.723.417.657.657,0,0,1-.556-.653c-.014-.25-.014-.5-.014-.751l.014-9.065a2.4,2.4,0,0,0-2.572-2.544H54.5a2.376,2.376,0,0,0-2.544,2.53V65.407a2.39,2.39,0,0,0,2.558,2.544l8.7-.014a.657.657,0,0,1,.681.4.665.665,0,0,1-.028.626.641.641,0,0,1-.556.306c-.417.014-.848,0-1.265,0H60.281c-1.96,0-3.934.014-5.895,0A3.678,3.678,0,0,1,50.7,66.283a3.135,3.135,0,0,1-.07-.751q-.021-7.841,0-15.682a3.7,3.7,0,0,1,3.754-3.74H72.113a3.7,3.7,0,0,1,3.712,3.184C75.839,49.349,75.853,49.391,75.867,49.433Z" transform="translate(-50.622 -46.11)"/>
      </g>
      <path id="Path_38400" data-name="Path 38400" class="cls-1" d="M61.927,61.419c0-1.012,0-2.026,0-3.038a2.207,2.207,0,0,1,3.362-1.96q2.659,1.512,5.3,3.054a2.2,2.2,0,0,1,0,3.884Q67.96,64.891,65.313,66.4a2.208,2.208,0,0,1-3.385-1.969Q61.925,62.927,61.927,61.419Zm2.026,0q0,1.493,0,2.985c0,.317.11.381.386.221q2.586-1.485,5.17-2.974c.3-.171.3-.286.006-.455q-2.584-1.489-5.169-2.974c-.289-.165-.393-.1-.393.235Q63.952,59.935,63.953,61.415Z" transform="translate(-46.211 -42.211)"/>
      <path id="Path_38401" data-name="Path 38401" class="cls-1" d="M54.183,48.775a1.012,1.012,0,1,1-1,1.023A1.013,1.013,0,0,1,54.183,48.775Z" transform="translate(-49.624 -45.07)"/>
      <path id="Path_38402" data-name="Path 38402" class="cls-1" d="M57.115,48.775A1.012,1.012,0,1,1,56.1,49.782,1.013,1.013,0,0,1,57.115,48.775Z" transform="translate(-48.486 -45.07)"/>
      <path id="Path_38403" data-name="Path 38403" class="cls-1" d="M61.036,49.776a1.012,1.012,0,1,1-1.022-1A1.013,1.013,0,0,1,61.036,49.776Z" transform="translate(-47.348 -45.07)"/>
      <path id="Path_38404" data-name="Path 38404" class="cls-1" d="M62.934,50.8a1.012,1.012,0,1,1,1.019-1.007A1.015,1.015,0,0,1,62.934,50.8Z" transform="translate(-46.211 -45.07)"/>
      <path id="Path_38405" data-name="Path 38405" class="cls-1" d="M65.845,50.8a1.012,1.012,0,1,1,1.022-1A1.013,1.013,0,0,1,65.845,50.8Z" transform="translate(-45.073 -45.07)"/>
      <path id="Path_38406" data-name="Path 38406" class="cls-1" d="M55.207,59.672A1.013,1.013,0,1,1,54.2,58.65,1.016,1.016,0,0,1,55.207,59.672Z" transform="translate(-49.624 -41.216)"/>
      <path id="Path_38407" data-name="Path 38407" class="cls-1" d="M58.121,59.658A1.012,1.012,0,1,1,57.1,58.65,1.015,1.015,0,0,1,58.121,59.658Z" transform="translate(-48.486 -41.216)"/>
      <path id="Path_38408" data-name="Path 38408" class="cls-1" d="M60.021,58.65a1.013,1.013,0,1,1-1.009,1.015A1.015,1.015,0,0,1,60.021,58.65Z" transform="translate(-47.348 -41.216)"/>
    </g>
  </g>
</svg>
