<?xml version="1.0" encoding="utf-8"?>
<!-- Generator: Adobe Illustrator 25.4.1, SVG Export Plug-In . SVG Version: 6.00 Build 0)  -->
<svg version="1.1" id="Layer_1" xmlns="http://www.w3.org/2000/svg" xmlns:xlink="http://www.w3.org/1999/xlink" x="0px" y="0px"
	 viewBox="0 0 42.83 42.83" style="enable-background:new 0 0 42.83 42.83;" xml:space="preserve">
<style type="text/css">
	.st0{fill:#FFFFFF;}
	.st1{fill:#FFF3E9;}
	.st2{clip-path:url(#SVGID_00000062896538593325957800000016732890891734652824_);fill:#E4D9CE;}
	.st3{fill:#6D7772;}
	.st4{fill:none;stroke:#303030;stroke-width:2.1984;stroke-linecap:round;stroke-miterlimit:10;}
	.st5{fill:#FFF0EF;}
	.st6{fill:#E87D86;}
	.st7{fill:#FFACB3;}
	.st8{fill:#EE7A63;}
	.st9{fill:#E4D9CE;}
	.st10{fill:#EAB8A0;}
	.st11{fill:#FF957B;}
	.st12{fill:#252D29;}
	.st13{fill:#EAB8A0;stroke:#252D29;stroke-width:5;stroke-miterlimit:10;}
	
		.st14{fill:none;stroke:#252D29;stroke-width:4;stroke-linecap:round;stroke-linejoin:round;stroke-miterlimit:10;stroke-dasharray:0.884,8;}
	.st15{fill:#B1B1A1;}
	
		.st16{fill:none;stroke:#252D29;stroke-width:4;stroke-linecap:round;stroke-linejoin:round;stroke-miterlimit:10;stroke-dasharray:0.7714,6.9813;}
	.st17{fill:#252D29;stroke:#E4D9CE;stroke-width:0.9857;stroke-miterlimit:10;}
	
		.st18{fill:none;stroke:#252D29;stroke-width:3.5192;stroke-linecap:round;stroke-linejoin:round;stroke-miterlimit:10;stroke-dasharray:0.6787,6.1422;}
	.st19{fill:#231F20;}
	.st20{fill:#6B4F5B;}
	.st21{fill:#E4D9CE;stroke:#252D29;stroke-width:3;stroke-miterlimit:10;}
	.st22{fill:none;stroke:#252D29;stroke-miterlimit:10;}
	.st23{fill:#FCE3C2;}
	.st24{fill:none;stroke:#252D29;stroke-width:4;stroke-miterlimit:10;}
	.st25{fill:#D9D93C;}
	.st26{fill:none;stroke:#252D29;stroke-width:6;stroke-miterlimit:10;}
	.st27{fill:#B1B1A1;stroke:#252D29;stroke-width:4;stroke-miterlimit:10;}
	.st28{clip-path:url(#SVGID_00000000181776136249260710000018332086966449450388_);}
	.st29{fill:#FFEEE3;}
	.st30{fill:#351E13;}
	.st31{fill:#FFD4D0;}
	.st32{fill:#633E2E;}
	.st33{fill:#A9BA5A;}
	.st34{fill:#E66353;}
	.st35{fill:none;stroke:#252D29;stroke-width:3;stroke-miterlimit:10;}
	.st36{fill:#2E2E30;}
	.st37{fill:none;}
	.st38{fill:#172026;}
	.st39{fill:none;stroke:#000000;stroke-miterlimit:10;}
	.st40{fill:none;stroke:#172026;stroke-width:2;stroke-linecap:round;stroke-linejoin:round;}
	.st41{fill:none;stroke:#000000;stroke-width:12;stroke-miterlimit:10;}
	.st42{fill:#5B6E80;}
	.st43{fill:#FF856D;}
	.st44{fill-rule:evenodd;clip-rule:evenodd;fill:#5B6E80;}
	.st45{fill:none;stroke:#5B6E80;stroke-width:2;stroke-linecap:round;stroke-linejoin:round;}
</style>
<g id="Group_172814" transform="translate(2308.568 108.768)">
</g>
<path id="Path_38256" class="st43" d="M39.76,9.12c-1.1-0.66-2.52-0.31-3.2,0.78c-0.39,0.61-0.75,1.24-1.09,1.87
	C33.52,9.2,31.28,6.69,28,5.31c-0.05-0.02-0.1-0.04-0.15-0.06c-1.7-0.6-3.58-0.46-5.17,0.4c-1.06,0.61-1.91,1.51-2.45,2.61
	c-0.46,0.96-0.75,2-0.85,3.06c-0.27,2.08-0.33,4.18-0.18,6.27c-0.51-0.03-1.02-0.06-1.54-0.1c-1.52-0.1-3.1-0.2-4.68-0.23l0,0
	c-0.45-3.88-1.3-7.7-2.53-11.4c-0.41-1.2-1.71-1.85-2.92-1.45c-1.23,0.43-1.88,1.77-1.46,3c1.04,3.16,1.78,6.41,2.2,9.71
	c-0.58,0.01-1.19,0.04-1.84,0.1c-1.28,0.11-2.22,1.24-2.11,2.52c0.11,1.28,1.24,2.22,2.52,2.11l0,0c0.61-0.05,1.18-0.08,1.75-0.08
	c0.06,2.64,0.08,5.32-0.06,7.93c-0.02,0.27-0.02,0.6-0.03,0.97c-0.01,0.64-0.03,1.41-0.09,2.14c-0.81-1.04-1.48-2.18-2.01-3.39
	c-0.53-1.17-1.91-1.68-3.08-1.15c-1.09,0.5-1.62,1.75-1.22,2.89c0.94,2.25,2.31,4.29,4.05,6c0.74,0.83,1.79,1.32,2.9,1.37
	c0.09,0,0.17-0.01,0.26-0.01c0.41-0.02,0.81-0.11,1.19-0.28c1.67-0.74,2.27-2.61,2.5-4.57c0.2-1.25,0.32-2.52,0.36-3.78
	c0.12-2.73,0.02-5.77-0.07-7.98c1.35,0.04,2.74,0.13,4.08,0.21c0.75,0.05,1.51,0.1,2.27,0.14c0.14,1.11,0.32,2.23,0.53,3.34
	c0.43,2.51,1.1,4.97,2,7.35c1.06,2.65,2.3,4.32,3.8,5.09L26,38.07c0.6,0.31,1.26,0.47,1.94,0.47c0.96-0.01,1.88-0.34,2.63-0.94
	c0.86-0.72,1.55-1.62,2.02-2.64c1.24-2.84,2.2-5.81,2.85-8.84c1.15-4.52,2.45-9.65,5.08-13.77c0.69-1.08,0.36-2.52-0.72-3.2
	C39.78,9.13,39.77,9.12,39.76,9.12z M30.92,24.97c-0.58,2.71-1.42,5.36-2.5,7.91c-0.07,0.14-0.14,0.27-0.2,0.38
	c-0.12,0.2-0.38,0.27-0.59,0.15c-0.05-0.03-0.1-0.08-0.14-0.13c-0.73-1.07-1.86-3.58-2.78-8.52c-0.15-0.79-0.28-1.59-0.39-2.4
	c0.8-0.02,1.6-0.07,2.4-0.15c1.31-0.11,2.61-0.3,3.9-0.58c0.44-0.1,0.86-0.21,1.26-0.33C31.54,22.56,31.23,23.79,30.92,24.97
	L30.92,24.97z M31.89,16.35l-0.05,0.02c-0.71,0.33-1.46,0.58-2.23,0.74c-1.1,0.23-2.21,0.39-3.33,0.48
	c-0.8,0.08-1.61,0.12-2.42,0.14c-0.16-1.9-0.12-3.8,0.11-5.69c0.01-0.05,0.01-0.09,0.02-0.14c0.17-1.54,0.6-1.98,1-2.21
	c0.21-0.11,0.44-0.16,0.67-0.15c0.21,0,0.41,0.03,0.61,0.09c2.48,1.08,4.28,3.3,6.05,5.68c0.06,0.1,0.12,0.18,0.17,0.26
	c0.11,0.19,0.05,0.43-0.13,0.55c-0.01,0.01-0.02,0.01-0.03,0.02C32.17,16.22,32.01,16.29,31.89,16.35L31.89,16.35z"/>
</svg>
