<?xml version="1.0" encoding="utf-8"?>
<!-- Generator: Adobe Illustrator 25.4.1, SVG Export Plug-In . SVG Version: 6.00 Build 0)  -->
<svg version="1.1" id="Layer_1" xmlns="http://www.w3.org/2000/svg" xmlns:xlink="http://www.w3.org/1999/xlink" x="0px" y="0px"
	 viewBox="0 0 30 30" style="enable-background:new 0 0 30 30;" xml:space="preserve">
<style type="text/css">
	.st0{fill:#FFFFFF;}
	.st1{fill:#FFF3E9;}
	.st2{clip-path:url(#SVGID_00000165228815598387832710000017197109593376523446_);fill:#E4D9CE;}
	.st3{fill:#6D7772;}
	.st4{fill:none;stroke:#303030;stroke-width:2.1984;stroke-linecap:round;stroke-miterlimit:10;}
	.st5{fill:#FFF0EF;}
	.st6{fill:#E87D86;}
	.st7{fill:#FFACB3;}
	.st8{fill:#EE7A63;}
	.st9{fill:#E4D9CE;}
	.st10{fill:#EAB8A0;}
	.st11{fill:#FF957B;}
	.st12{fill:#252D29;}
	.st13{fill:#EAB8A0;stroke:#252D29;stroke-width:5;stroke-miterlimit:10;}
	
		.st14{fill:none;stroke:#252D29;stroke-width:4;stroke-linecap:round;stroke-linejoin:round;stroke-miterlimit:10;stroke-dasharray:0.884,8;}
	.st15{fill:#B1B1A1;}
	
		.st16{fill:none;stroke:#252D29;stroke-width:4;stroke-linecap:round;stroke-linejoin:round;stroke-miterlimit:10;stroke-dasharray:0.7714,6.9813;}
	.st17{fill:#252D29;stroke:#E4D9CE;stroke-width:0.9857;stroke-miterlimit:10;}
	
		.st18{fill:none;stroke:#252D29;stroke-width:3.5192;stroke-linecap:round;stroke-linejoin:round;stroke-miterlimit:10;stroke-dasharray:0.6787,6.1422;}
	.st19{fill:#231F20;}
	.st20{fill:#6B4F5B;}
	.st21{fill:#E4D9CE;stroke:#252D29;stroke-width:3;stroke-miterlimit:10;}
	.st22{fill:none;stroke:#252D29;stroke-miterlimit:10;}
	.st23{fill:#FCE3C2;}
	.st24{fill:none;stroke:#252D29;stroke-width:4;stroke-miterlimit:10;}
	.st25{fill:#D9D93C;}
	.st26{fill:none;stroke:#252D29;stroke-width:6;stroke-miterlimit:10;}
	.st27{fill:#B1B1A1;stroke:#252D29;stroke-width:4;stroke-miterlimit:10;}
	.st28{clip-path:url(#SVGID_00000060749360658365180560000017028649272926131087_);}
	.st29{fill:#FFEEE3;}
	.st30{fill:#351E13;}
	.st31{fill:#FFD4D0;}
	.st32{fill:#633E2E;}
	.st33{fill:#A9BA5A;}
	.st34{fill:#E66353;}
	.st35{fill:none;stroke:#252D29;stroke-width:3;stroke-miterlimit:10;}
	.st36{fill:#2E2E30;}
	.st37{fill:none;}
	.st38{fill:#172026;}
	.st39{fill:none;stroke:#000000;stroke-miterlimit:10;}
	.st40{fill:none;stroke:#172026;stroke-width:2;stroke-linecap:round;stroke-linejoin:round;}
	.st41{fill:none;stroke:#000000;stroke-width:12;stroke-miterlimit:10;}
	.st42{fill:#5B6E80;}
	.st43{fill:#FF856D;}
	.st44{fill-rule:evenodd;clip-rule:evenodd;fill:#5B6E80;}
	.st45{fill:none;stroke:#5B6E80;stroke-width:2;stroke-linecap:round;stroke-linejoin:round;}
</style>
<path id="Path_38251" class="st42" d="M26.45,21.86c-0.07-0.59-0.62-1.02-1.21-0.94c-0.55,0.07-0.97,0.55-0.95,1.11l0,0
	c0.01,0.04,0.02,0.08,0.03,0.12c0.14,0.57-0.22,1.15-0.79,1.29c-0.06,0.01-0.13,0.02-0.19,0.03c-0.08,0.01-0.16,0.01-0.24,0.01H6.93
	c-0.08,0-0.16,0-0.24-0.01c-0.1-0.01-0.2-0.03-0.3-0.07l-0.03-0.01c-0.03-0.01-0.05-0.02-0.08-0.04c-0.11-0.05-0.2-0.12-0.29-0.2
	c-0.02-0.02-0.05-0.05-0.07-0.07C5.9,23.04,5.87,23,5.84,22.96c-0.01-0.02-0.02-0.04-0.03-0.06c-0.12-0.23-0.16-0.5-0.1-0.76
	c0.02-0.11,0.04-0.21,0.07-0.32l0,0c0.03-0.16,0.07-0.32,0.11-0.48c0.03-0.1,0.06-0.21,0.1-0.31c0.02-0.05,0.04-0.1,0.06-0.15
	l0.08-0.18c0.08-0.18,0.16-0.36,0.24-0.54C6.4,20.12,6.42,20.06,6.45,20c0.11-0.24,0.22-0.48,0.33-0.71
	c0.06-0.12,0.11-0.24,0.17-0.35c0.06-0.12,0.12-0.23,0.18-0.35c0.09-0.17,0.19-0.34,0.29-0.51c0.08-0.13,0.15-0.27,0.22-0.41
	c0.05-0.09,0.09-0.18,0.14-0.27c0.18-0.36,0.33-0.74,0.46-1.12c0.05-0.14,0.09-0.28,0.13-0.43c0.05-0.19,0.1-0.38,0.14-0.58l0,0
	c0.04-0.2,0.07-0.39,0.1-0.59l0.02-0.15c0.06-0.48,0.08-0.96,0.06-1.44c0-0.09-0.01-0.18-0.01-0.26l0,0c-0.01-0.5,0.01-1,0.07-1.49
	c0.14-1,0.51-1.95,1.09-2.77c0.03-0.04,0.05-0.08,0.08-0.11c0.27-0.37,0.59-0.71,0.94-1.01c0.1-0.09,0.21-0.18,0.32-0.26
	s0.22-0.16,0.34-0.24c0.08-0.05,0.15-0.1,0.23-0.15l0,0c0.08-0.05,0.16-0.09,0.24-0.14c0.08-0.04,0.16-0.09,0.25-0.13
	s0.17-0.08,0.25-0.12s0.17-0.07,0.26-0.1s0.17-0.06,0.26-0.09s0.18-0.06,0.27-0.08c0.55-0.15,1.11-0.23,1.68-0.23h0.03
	c0.72,0,1.43,0.12,2.11,0.35c0.09,0.03,0.18,0.07,0.27,0.1c2.09,0.85,3.56,2.75,3.86,4.98c0.04,0.25,0.06,0.51,0.07,0.77
	c0.01,0.33,0.01,0.66,0,0.99c-0.06,1.39,0.21,2.77,0.79,4.03l0,0c0.12,0.24,0.25,0.48,0.38,0.71c0.26,0.38,0.75,0.54,1.18,0.37
	c0.45-0.13,0.76-0.55,0.73-1.02c-0.05-0.27-0.13-0.54-0.25-0.79c-0.15-0.38-0.33-0.76-0.51-1.17h0.08
	c-0.17-0.61-0.24-1.25-0.22-1.88c0-0.11,0-0.23,0.01-0.34c0.01-0.64-0.02-1.27-0.08-1.91c-0.12-1.02-0.43-2.02-0.93-2.92
	c-0.17-0.3-0.35-0.59-0.55-0.87c-0.19-0.27-0.4-0.52-0.62-0.77c-0.35-0.39-0.74-0.75-1.16-1.08c-0.62-0.48-1.3-0.87-2.03-1.15
	c-0.58-0.22-1.17-0.38-1.78-0.48c-0.19-0.03-0.24-0.1-0.23-0.28c0.01-0.34-0.02-0.69,0.01-1.03c0.11-0.59-0.22-1.17-0.78-1.38
	c-0.04-0.02-0.08-0.02-0.12-0.02h-0.42c-0.04,0-0.08,0.01-0.12,0.02h-0.01c-0.1,0.04-0.2,0.1-0.29,0.16l-0.03,0.02l-0.04,0.03
	c-0.01,0.01-0.03,0.02-0.04,0.03s-0.02,0.02-0.03,0.03s-0.02,0.02-0.03,0.03s-0.02,0.02-0.03,0.04l-0.03,0.03v0.01l-0.03,0.03
	L14.1,1.6c-0.01,0.01-0.02,0.03-0.02,0.04s-0.02,0.03-0.02,0.04s-0.01,0.03-0.02,0.04s-0.01,0.02-0.02,0.03S14,1.79,13.99,1.81
	s-0.01,0.03-0.02,0.04s-0.01,0.03-0.01,0.05s-0.02,0.06-0.02,0.09c-0.01,0.03-0.01,0.04-0.01,0.07s-0.01,0.06-0.01,0.09v0.01
	c0,0.02,0,0.03,0,0.05c-0.01,0.11-0.01,0.21,0,0.32c0.01,0.2,0.01,0.4,0.01,0.61c0,0.14,0,0.28,0,0.43c0,0.04,0,0.07,0,0.11
	c0,0.01-0.01,0.03-0.01,0.04c0,0.01-0.01,0.01-0.01,0.02c-0.01,0.01-0.01,0.02-0.02,0.03l0,0c-0.01,0.01-0.02,0.02-0.03,0.03
	l-0.02,0.01c-0.02,0.01-0.05,0.02-0.07,0.03l0,0l-0.06,0.01c-0.3,0.05-0.6,0.11-0.9,0.19c-0.18,0.05-0.35,0.1-0.52,0.16l0,0
	c-0.11,0.04-0.22,0.08-0.34,0.12l0,0c-0.5,0.19-0.97,0.43-1.42,0.72c-0.25,0.16-0.49,0.33-0.73,0.52C9.7,5.61,9.6,5.69,9.51,5.77
	c-0.14,0.12-0.27,0.24-0.4,0.37C9.07,6.18,9.02,6.22,8.98,6.27C8.9,6.36,8.81,6.45,8.73,6.54c-0.18,0.2-0.35,0.41-0.51,0.62
	C8.15,7.25,8.08,7.33,8.02,7.42c-0.09,0.13-0.18,0.27-0.26,0.4C7.54,8.18,7.35,8.55,7.19,8.94c-0.04,0.1-0.08,0.19-0.11,0.29
	c-0.07,0.2-0.14,0.4-0.2,0.6c-0.12,0.41-0.2,0.84-0.25,1.26c-0.02,0.19-0.04,0.38-0.05,0.57c0,0.03,0,0.05,0,0.08
	C6.55,12,6.55,12.25,6.54,12.5c0,0.08,0,0.17,0,0.25c0,0.09,0,0.19,0,0.28c0,0.07,0,0.14,0,0.2c0,0.04,0,0.07,0,0.1s0,0.06,0,0.09
	c0.01,0.36-0.02,0.72-0.07,1.07c0,0.04-0.01,0.07-0.02,0.11c-0.08,0.46-0.21,0.91-0.38,1.34c-0.03,0.07-0.06,0.13-0.08,0.2l0,0
	c-0.11,0.23-0.22,0.46-0.35,0.68c-0.68,1.07-1.23,2.21-1.65,3.4c-0.01,0.04-0.02,0.07-0.03,0.11l0,0c-0.12,0.39-0.21,0.79-0.31,1.19
	l-0.05,0.22l-0.04,0.18l-0.01,0.04c-0.01,0.03-0.01,0.06-0.01,0.09v0.68c0,0.03,0,0.05,0.01,0.08c0.01,0.03,0.01,0.06,0.02,0.1
	c0.01,0.05,0.03,0.11,0.04,0.16c0.01,0.03,0.02,0.06,0.02,0.09s0.02,0.07,0.03,0.1s0.02,0.06,0.03,0.1c0.03,0.09,0.06,0.19,0.1,0.28
	c0.01,0.03,0.03,0.06,0.04,0.09l0.03,0.07c0.04,0.08,0.07,0.15,0.12,0.23c0.01,0.02,0.02,0.04,0.04,0.06
	c0.03,0.05,0.07,0.11,0.11,0.16c0.1,0.14,0.21,0.27,0.33,0.4c0.09,0.1,0.19,0.19,0.29,0.27l0,0c0.1,0.08,0.2,0.16,0.31,0.23l0,0
	c0.05,0.03,0.11,0.07,0.16,0.1c0.17,0.09,0.35,0.17,0.53,0.23c0.12,0.04,0.25,0.07,0.38,0.1c0.06,0.01,0.12,0.02,0.18,0.03h0.03
	c0.06,0.01,0.12,0.01,0.18,0.02c0.11,0.01,0.22,0.01,0.33,0.01c1.54,0.01,3.07,0,4.61,0l0,0c0.16,0,0.3,0.11,0.33,0.27v0.01
	l0.02,0.13c0.01,0.04,0.01,0.07,0.02,0.11c0,0.02,0.01,0.04,0.01,0.06s0.01,0.06,0.02,0.09c0.02,0.1,0.05,0.2,0.08,0.29l0.02,0.05
	c0,0.01,0.01,0.03,0.02,0.05c0.1,0.29,0.24,0.56,0.41,0.81c0.04,0.06,0.08,0.12,0.13,0.17c0.09,0.11,0.18,0.22,0.28,0.31
	c0.05,0.05,0.1,0.1,0.15,0.14c0.08,0.07,0.16,0.13,0.25,0.19c0.06,0.04,0.12,0.08,0.18,0.11c0.26,0.15,0.54,0.26,0.84,0.34
	c0.07,0.02,0.14,0.03,0.21,0.05l0.12,0.02c0.02,0,0.04,0.01,0.06,0.02l0,0c0.04,0.02,0.08,0.02,0.13,0.02h0.62
	c0.04,0,0.08-0.01,0.12-0.02h0.01l0.01-0.01l0,0l0.02-0.01l0.03-0.01l0,0c0.33-0.06,0.66-0.16,0.96-0.31l0.02-0.01
	c0.46-0.23,0.85-0.57,1.14-0.99c0.18-0.26,0.32-0.54,0.43-0.84c0.06-0.18,0.11-0.37,0.14-0.56c0.01-0.07,0.03-0.14,0.04-0.22
	c0.03-0.16,0.17-0.28,0.34-0.28h0.25c1.29,0,2.58,0,3.88,0c0.21,0,0.42-0.01,0.62-0.01c1.79-0.06,3.2-1.56,3.14-3.35
	C26.48,22.13,26.47,21.99,26.45,21.86z M15.97,26.12c0,0.01-0.01,0.02-0.01,0.03c-0.07,0.14-0.18,0.27-0.31,0.36
	c-0.01,0.01-0.03,0.02-0.04,0.03c-0.03,0.02-0.06,0.04-0.09,0.05l-0.05,0.02l-0.05,0.02l-0.05,0.02l-0.05,0.02l-0.05,0.01l0,0
	l-0.05,0.01l-0.05,0.01l-0.05,0.01h-0.05h-0.05l0,0h-0.06h-0.05c-0.05-0.01-0.11-0.01-0.16-0.03l-0.03-0.01l0,0l-0.03-0.01
	c-0.07-0.02-0.14-0.05-0.21-0.09l-0.02-0.01c-0.02-0.01-0.04-0.02-0.06-0.04c-0.04-0.03-0.08-0.06-0.11-0.09
	c-0.02-0.01-0.03-0.03-0.05-0.05l0,0l-0.04-0.05c-0.01-0.02-0.03-0.03-0.04-0.05l-0.02-0.02l-0.03-0.05v-0.01
	c-0.01-0.02-0.02-0.04-0.03-0.05l0,0v-0.01c-0.09-0.17-0.02-0.38,0.15-0.46c0.05-0.03,0.1-0.04,0.16-0.04h1.28
	c0.19,0,0.34,0.15,0.34,0.34c0,0.04-0.01,0.08-0.02,0.12C15.99,26.12,15.98,26.13,15.97,26.12z"/>
</svg>
