<?xml version="1.0" encoding="utf-8"?>
<!-- Generator: Adobe Illustrator 25.4.1, SVG Export Plug-In . SVG Version: 6.00 Build 0)  -->
<svg version="1.1" id="Layer_1" xmlns="http://www.w3.org/2000/svg" xmlns:xlink="http://www.w3.org/1999/xlink" x="0px" y="0px"
	 viewBox="0 0 30 30" style="enable-background:new 0 0 30 30;" xml:space="preserve">
<style type="text/css">
	.st0{fill:#5B6E80;}
</style>
<g id="Icon_Saved_Cards" transform="translate(0 5.551)">
	<g id="Group_330" transform="translate(13.583 10.564)">
		<g id="Path_85">
			<path class="st0" d="M12.6-1.8c0,0-0.1,0-0.1-0.1c0,0-0.1,0-0.1,0v-1.2c0-2.1-1.8-3.9-3.9-3.9H-7.1C-8-7-8.8-7.8-8.8-8.7
				c0.1-0.9,0.8-1.6,1.7-1.6H8.5c0.6,0,1.2,0.3,1.4,0.9c0.2,0.4,0.6,0.6,1.1,0.6c0.6,0,1.1-0.5,1.1-1.1c0-0.2,0-0.4-0.1-0.5
				c-0.6-1.3-2-2.1-3.4-2.1H-7.1c-2.1,0-3.9,1.8-3.9,3.9V6.4c0,2.2,1.8,3.9,3.9,3.9H8.5c2.2,0,3.9-1.8,3.9-3.9V5.2c0,0,0.1,0,0.1,0
				c0,0,0.1,0,0.1,0c0.7-0.3,1.2-1,1.3-1.9V0C13.9-0.8,13.4-1.5,12.6-1.8z M10.1,6.4c0,0.9-0.7,1.6-1.6,1.6H-7.1
				c-0.9,0-1.6-0.7-1.6-1.6V-5.1L-8.6-5c0.5,0.2,1,0.3,1.5,0.3H8.5c0.9,0,1.6,0.7,1.6,1.6V-2H4.6c0,0,0,0,0,0C4-2,3.5-1.8,3.2-1.4
				C2.8-1,2.6-0.5,2.6,0v3.2c0,0.5,0.2,1,0.6,1.4C3.5,5.1,4,5.3,4.6,5.3h5.5V6.4z M11.6,3H4.8V0.3h6.8V3z"/>
		</g>
	</g>
</g>
</svg>
